# xmcd CD database file
#
# Track frame offsets:
#	150
#	10557
#	22497
#	33870
#	44737
#	54192
#	69752
#	81527
#	94427
#	107375
#	120697
#	131712
#	143010
#	154990
#	165177
#	172855
#	183295
#	192402
#	208282
#	219720
#	230250
#	240487
#	250807
#	263450
#	273900
#	286995
#
# Disc length: 3953 seconds
#
# Revision: 1
# Processed by: cddbd v1.5.2PL0 Copyright (c) Steve Scherf et al.
# Submitted via: CDex 1.79
#
DISCID=680f6f1a
DTITLE=Osborne Brothers - 1968 - 1974 Disc 3
DYEAR=1900
DGENRE=Bluegrass
TTITLE0=Color Me Lonely
TTITLE1=Take Me Home Country Roads
TTITLE2=Tears Are No Strangers
TTITLE3=Oh, The Pain Of Loving You
TTITLE4=Unfaithful One
TTITLE5=Ballad Of Forty Dollars
TTITLE6=Tomorrow Never Comes
TTITLE7=Sometimes You Just Can`t Win
TTITLE8=Shelly`s Winter Love
TTITLE9=I Wonder Why You Said Goodbye
TTITLE10=Tunnel Of Your Mind
TTITLE11=Eight More Miles To Louisville
TTITLE12=Love Lifted Me
TTITLE13=Stand Beside Me, Behind Me
TTITLE14=Miss You Mississippi
TTITLE15=Teardrops Will Kiss The Morning Dew
TTITLE16=Long Lanky Woman
TTITLE17=Knoxville Girl
TTITLE18=Wash My Face In The Morning Dew
TTITLE19=Love`s Gonna Live Here
TTITLE20=Today I Started Loving You Again
TTITLE21=Arkansas
TTITLE22=Fireball Mail
TTITLE23=Midnight Flyer
TTITLE24=How Long Does It Take (To Be A Stranger)
TTITLE25=Blue Heartache
EXTD=
EXTT0=
EXTT1=
EXTT2=
EXTT3=
EXTT4=
EXTT5=
EXTT6=
EXTT7=
EXTT8=
EXTT9=
EXTT10=
EXTT11=
EXTT12=
EXTT13=
EXTT14=
EXTT15=
EXTT16=
EXTT17=
EXTT18=
EXTT19=
EXTT20=
EXTT21=
EXTT22=
EXTT23=
EXTT24=
EXTT25=
PLAYORDER=
